<svg xmlns="http://www.w3.org/2000/svg" width="27" height="28" viewBox="0 0 27 28"><g><g><path fill="#16437d" d="M10.765 19.706a8.398 8.398 0 0 1-5.977-2.475 8.394 8.394 0 0 1-2.475-5.97 8.37 8.37 0 0 1 2.475-5.97 8.398 8.398 0 0 1 5.977-2.474c2.257 0 4.38.879 5.976 2.475a8.394 8.394 0 0 1 2.475 5.97 8.37 8.37 0 0 1-2.475 5.969 8.398 8.398 0 0 1-5.976 2.475zm15.919 5.843l-7.51-7.58a10.738 10.738 0 0 0 2.356-6.715C21.53 5.313 16.713.496 10.765.496 4.816.496 0 5.32 0 11.261 0 17.203 4.816 22.02 10.765 22.02c2.573 0 4.929-.9 6.785-2.405l7.46 7.53c.225.24.535.36.837.36.288 0 .576-.106.794-.317a1.163 1.163 0 0 0 .043-1.638z"/></g></g></svg>