<svg xmlns="http://www.w3.org/2000/svg" width="20" height="20" viewBox="0 0 20 20"><g><g><path fill="#f5f5f5" d="M7 10a3 3 0 1 0 6 0 3 3 0 0 0-6 0zm8.25-4a1.25 1.25 0 1 1 0-2.5 1.25 1.25 0 0 1 0 2.5zM15 10a5 5 0 1 1-10 0 5 5 0 0 1 10 0zM5.878.06C4.812.11 4.088.277 3.45.525a4.897 4.897 0 0 0-1.772 1.153A4.88 4.88 0 0 0 .525 3.45C.277 4.088.11 4.812.06 5.878.01 6.944 0 7.283 0 10c0 2.717.013 3.056.06 4.122.05 1.065.217 1.791.465 2.428.25.667.644 1.272 1.153 1.772a4.89 4.89 0 0 0 1.772 1.153c.638.247 1.363.415 2.428.465 1.066.05 1.405.06 4.122.06 2.717 0 3.056-.013 4.122-.06 1.065-.05 1.791-.218 2.428-.465a4.915 4.915 0 0 0 1.772-1.153c.51-.5.903-1.104 1.153-1.772.247-.638.415-1.363.465-2.428.05-1.066.06-1.405.06-4.122 0-2.717-.013-3.056-.06-4.122-.05-1.065-.218-1.791-.465-2.428a4.908 4.908 0 0 0-1.153-1.772A4.876 4.876 0 0 0 16.55.525C15.912.277 15.187.11 14.122.06 13.056.01 12.717 0 10 0 7.283 0 6.944.013 5.878.06z"/></g></g></svg>